<svg width="108" height="108" viewBox="0 0 108 108" fill="none" xmlns="http://www.w3.org/2000/svg">
<path fill-rule="evenodd" clip-rule="evenodd" d="M55.2488 40.2563C55.2488 39.5662 54.6894 39.0068 53.9994 39.0068C53.3093 39.0068 52.7499 39.5662 52.7499 40.2563V44.0046C52.7499 44.6946 53.3093 45.254 53.9994 45.254C54.6894 45.254 55.2488 44.6946 55.2488 44.0046V40.2563ZM45.1006 43.3349C44.6127 42.8471 43.8217 42.8471 43.3338 43.3349C42.846 43.8228 42.846 44.6137 43.3338 45.1016L45.6179 47.3881C46.1064 47.8766 46.8986 47.8766 47.3871 47.3881C47.8757 46.8995 47.8757 46.1074 47.3871 45.6189L45.1006 43.3349ZM39.0056 54.0001C39.0056 53.3101 39.565 52.7507 40.2551 52.7507H44.2184C44.9085 52.7507 45.4679 53.3101 45.4679 54.0001C45.4679 54.6902 44.9085 55.2496 44.2184 55.2496H40.2551C39.565 55.2496 39.0056 54.6902 39.0056 54.0001ZM63.9952 52.7507C63.3051 52.7507 62.7457 53.3101 62.7457 54.0001C62.7457 54.6902 63.3051 55.2496 63.9952 55.2496H67.7436C68.4337 55.2496 68.9931 54.6902 68.9931 54.0001C68.9931 53.3101 68.4337 52.7507 67.7436 52.7507H63.9952Z" fill="#FEFEFE"/>
<path fill-rule="evenodd" clip-rule="evenodd" d="M34.2839 50.6603C32.44 61.5485 39.7722 71.8699 50.6608 73.7137V73.7162C61.55 75.56 71.8723 68.2274 73.7162 57.3385C75.56 46.4496 68.2273 36.1277 57.338 34.2839C46.4494 32.4401 36.1277 39.772 34.2839 50.6603ZM53.9994 58.9978C48.7342 58.9901 43.5607 60.3746 39.0031 63.011C34.5935 55.6685 36.1491 46.2132 42.6785 40.6703C49.208 35.1274 58.7908 35.1274 65.3202 40.6703C71.8497 46.2132 73.4052 55.6685 68.9956 63.011C64.585 60.4596 59.4621 58.9978 53.9994 58.9978Z" fill="white"/>
<path d="M65.0744 42.6121C64.7149 42.2562 64.1429 42.2345 63.7574 42.5621L53.3118 51.4981C52.6556 52.0599 52.3744 52.945 52.586 53.7825C52.7976 54.62 53.4654 55.2653 54.3097 55.4481C55.1541 55.6308 56.029 55.3193 56.5679 54.6442L65.1494 43.9065C65.4573 43.5192 65.4262 42.9626 65.0769 42.6121H65.0744Z" fill="#CDD3F2"/>
</svg>
